HIERARCHY
ROOT Hips
{
	OFFSET 0.00000 0.00000 0.00000
	CHANNELS 6 Xposition Yposition Zposition Zrotation Yrotation Xrotation 
	JOINT LHipJoint
	{
		OFFSET 0 0 0
		CHANNELS 3 Zrotation Yrotation Xrotation
		JOINT LeftUpLeg
		{
			OFFSET 1.80322 -1.53100 0.99595
			CHANNELS 3 Zrotation Yrotation Xrotation
			JOINT LeftLeg
			{
				OFFSET 2.25177 -6.18669 0.00000
				CHANNELS 3 Zrotation Yrotation Xrotation
				JOINT LeftFoot
				{
					OFFSET 2.26601 -6.22582 0.00000
					CHANNELS 3 Zrotation Yrotation Xrotation
					JOINT LeftToeBase
					{
						OFFSET 0.23701 -0.65119 2.15848
						CHANNELS 3 Zrotation Yrotation Xrotation
						End Site
						{
							OFFSET 0.00000 -0.00000 1.12949
						}
					}
				}
			}
		}
	}
	JOINT RHipJoint
	{
		OFFSET 0 0 0
		CHANNELS 3 Zrotation Yrotation Xrotation
		JOINT RightUpLeg
		{
			OFFSET -1.93977 -1.53100 0.99595
			CHANNELS 3 Zrotation Yrotation Xrotation
			JOINT RightLeg
			{
				OFFSET -2.28036 -6.26523 0.00000
				CHANNELS 3 Zrotation Yrotation Xrotation
				JOINT RightFoot
				{
					OFFSET -2.25490 -6.19528 0.00000
					CHANNELS 3 Zrotation Yrotation Xrotation
					JOINT RightToeBase
					{
						OFFSET -0.28375 -0.77960 2.23137
						CHANNELS 3 Zrotation Yrotation Xrotation
						End Site
						{
							OFFSET -0.00000 -0.00000 1.17899
						}
					}
				}
			}
		}
	}
	JOINT LowerBack
	{
		OFFSET 0 0 0
		CHANNELS 3 Zrotation Yrotation Xrotation
		JOINT Spine
		{
			OFFSET -0.00088 2.12090 -0.02806
			CHANNELS 3 Zrotation Yrotation Xrotation
			JOINT Spine1
			{
				OFFSET -0.00286 2.09666 0.12974
				CHANNELS 3 Zrotation Yrotation Xrotation
				JOINT Neck
				{
					OFFSET 0 0 0
					CHANNELS 3 Zrotation Yrotation Xrotation
					JOINT Neck1
					{
						OFFSET 0.07328 1.83526 0.07290
						CHANNELS 3 Zrotation Yrotation Xrotation
						JOINT Head
						{
							OFFSET -0.06683 1.74974 -0.49542
							CHANNELS 3 Zrotation Yrotation Xrotation
							End Site
							{
								OFFSET -0.03398 1.85163 -0.17573
							}
						}
					}
				}
				JOINT LeftShoulder
				{
					OFFSET 0 0 0
					CHANNELS 3 Zrotation Yrotation Xrotation
					JOINT LeftArm
					{
						OFFSET 3.02113 1.18018 0.40602
						CHANNELS 3 Zrotation Yrotation Xrotation
						JOINT LeftForeArm
						{
							OFFSET 4.58538 -0.00000 -0.00000
							CHANNELS 3 Zrotation Yrotation Xrotation
							JOINT LeftHand
							{
								OFFSET 2.68935 -0.00000 -0.00000
								CHANNELS 3 Zrotation Yrotation Xrotation
								JOINT LeftFingerBase
								{
									OFFSET 0 0 0
									CHANNELS 3 Zrotation Yrotation Xrotation
									JOINT LeftHandIndex1
									{
										OFFSET 0.58506 -0.00000 -0.00000
										CHANNELS 3 Zrotation Yrotation Xrotation
										End Site
										{
											OFFSET 0.47169 -0.00000 -0.00000
										}
									}
								}
								JOINT LThumb
								{
									OFFSET 0 0 0
									CHANNELS 3 Zrotation Yrotation Xrotation
									End Site
									{
										OFFSET 0.47889 -0.00000 0.47889
									}
								}
							}
						}
					}
				}
				JOINT RightShoulder
				{
					OFFSET 0 0 0
					CHANNELS 3 Zrotation Yrotation Xrotation
					JOINT RightArm
					{
						OFFSET -2.95074 1.18843 0.31430
						CHANNELS 3 Zrotation Yrotation Xrotation
						JOINT RightForeArm
						{
							OFFSET -4.47450 -0.00000 -0.00000
							CHANNELS 3 Zrotation Yrotation Xrotation
							JOINT RightHand
							{
								OFFSET -2.93896 -0.00000 -0.00000
								CHANNELS 3 Zrotation Yrotation Xrotation
								JOINT RightFingerBase
								{
									OFFSET 0 0 0
									CHANNELS 3 Zrotation Yrotation Xrotation
									JOINT RightHandIndex1
									{
										OFFSET -0.40509 -0.00000 -0.00000
										CHANNELS 3 Zrotation Yrotation Xrotation
										End Site
										{
											OFFSET -0.32660 -0.00000 -0.00000
										}
									}
								}
								JOINT RThumb
								{
									OFFSET 0 0 0
									CHANNELS 3 Zrotation Yrotation Xrotation
									End Site
									{
										OFFSET -0.33158 -0.00000 0.33158
									}
								}
							}
						}
					}
				}
			}
		}
	}
}
MOTION
Frames: 11
Frame Time: .0083333
0.0202 15.906 5.0823 0 0 0 0 0 0 -21 0 0 0 0 0 0 0 0 0 0 0 0 0 0 21 0 0 0 0 0 0 0 0 0 0 0 0 0 0 0 0 0 0 0 0 0 0 -16 0 0 21 0 0 11 0 0 0 -8 0 0 0 0 0 0 0 0 0 0 0 0 0 0 0 0 0 0 0 0 8 0 0 0 0 0 0 0 0 0 0 0 0 0 0 0 0 0
0.0202 15.9060 5.0823 -1.1525 -1.3213 8.8767 0.0000 0.0000 0.0000 -12.7346 -15.4577 -0.8018 0.2124 2.9669 8.1867 -0.9426 18.9322 -16.3126 0.0240 -0.9993 -2.7469 0.0000 0.0000 0.0000 14.0542 6.5513 -1.5474 -0.1160 -2.1963 6.0484 1.5417 -22.4014 -16.0014 -0.0157 -0.8101 2.2265 3.5419 -0.8342 -3.6145 0.6394 -1.0941 -7.3831 -1.2987 -0.7242 -5.6960 8.5748 2.3108 -14.0324 -2.7312 1.7890 32.3817 -2.2944 1.4711 13.3608 -0.0000 -0.0000 0.0000 -85.1060 13.1458 22.5498 18.3282 -28.5754 -4.7052 -0.0000 -0.0000 13.6704 8.2021 15.8007 2.2476 -7.1250 0.0000 -0.0000 -18.0584 45.1345 -0.0620 -0.0000 -0.0000 0.0000 88.2857 -12.8321 27.3298 -14.1149 22.8988 -2.8727 0.0000 0.0000 23.3724 -13.4539 -3.6908 0.8823 7.1250 -0.0000 -0.0000 10.7459 -33.6281 3.0420
0.0292 15.9058 5.0872 -1.1258 -1.3635 8.9196 0.0000 0.0000 0.0000 -12.7985 -15.4448 -0.8826 0.2174 3.0018 8.2838 -0.9356 18.9116 -16.3813 0.0239 -0.9983 -2.7443 0.0000 0.0000 0.0000 13.9841 6.5673 -1.5004 -0.1115 -2.1528 5.9280 1.5407 -22.3979 -16.0098 -0.0175 -0.8552 2.3506 3.5213 -0.8323 -3.6806 0.6238 -1.0960 -7.3503 -1.3051 -0.7231 -5.6232 8.6094 2.3602 -14.0222 -2.8570 1.8963 32.3139 -2.3326 1.5042 13.3381 0.0000 0.0000 0.0000 -85.0029 13.0821 22.0573 18.1625 -28.3648 -4.6262 -0.0000 -0.0000 13.9541 8.2189 15.7391 2.2437 -7.1250 0.0000 -0.0000 -18.0219 45.0776 -0.0357 0.0000 0.0000 0.0000 88.2712 -12.6125 27.4818 -14.2082 23.0315 -2.9091 0.0000 0.0000 22.1503 -12.8551 -3.6910 0.8417 7.1250 -0.0000 -0.0000 11.2284 -33.6055 3.1894
0.0367 15.9055 5.0912 -1.1307 -1.4317 8.9612 0.0000 0.0000 0.0000 -12.8223 -15.3867 -0.9296 0.2181 3.0064 8.2966 -0.9305 18.8905 -16.4143 0.0224 -0.9669 -2.6577 0.0000 0.0000 0.0000 13.9717 6.6305 -1.4883 -0.1100 -2.1384 5.8884 1.5347 -22.3777 -16.0578 -0.0189 -0.8878 2.4401 3.5225 -0.8186 -3.7113 0.6131 -1.0801 -7.3296 -1.3179 -0.7148 -5.5830 8.6633 2.4152 -14.0486 -2.9852 2.0034 32.2895 -2.3758 1.5402 13.3427 -0.0000 -0.0000 0.0000 -84.8401 13.0247 21.7476 17.9449 -28.0866 -4.5233 -0.0000 -0.0000 14.2927 8.2233 15.7316 2.2439 -7.1250 0.0000 -0.0000 -18.0154 45.0709 -0.0326 -0.0000 -0.0000 0.0000 88.2408 -12.4036 27.7602 -14.3509 23.2341 -2.9651 0.0000 0.0000 20.3607 -11.8466 -4.5527 0.9539 7.1250 -0.0000 -0.0000 12.1746 -34.4269 3.2204
0.0440 15.9060 5.0957 -1.1070 -1.4835 8.9850 0.0000 0.0000 0.0000 -12.8835 -15.3408 -0.9418 0.2185 3.0089 8.3034 -0.9283 18.8840 -16.4357 0.0228 -0.9755 -2.6813 0.0000 0.0000 0.0000 13.9074 6.6727 -1.4805 -0.1092 -2.1306 5.8667 1.5421 -22.4110 -16.0291 -0.0174 -0.8525 2.3429 3.5170 -0.8119 -3.7052 0.5962 -1.0714 -7.3457 -1.3322 -0.7113 -5.6035 8.7040 2.4668 -13.9432 -3.1228 2.1259 32.2434 -2.4180 1.5804 13.3105 0.0000 -0.0000 0.0000 -84.7486 13.1929 21.4571 17.8598 -27.9773 -4.4833 -0.0000 -0.0000 14.8591 8.1277 15.6870 2.2113 -7.1250 0.0000 -0.0000 -18.0847 45.0171 -0.0079 0.0000 -0.0000 0.0000 88.1470 -12.3173 28.3566 -14.6200 23.6140 -3.0721 0.0000 0.0000 17.4216 -11.1423 -5.3775 1.0575 7.1250 -0.0000 -0.0000 12.8855 -35.2145 3.1636
0.0511 15.9063 5.1002 -1.0868 -1.5452 9.0087 0.0000 0.0000 0.0000 -12.9417 -15.2800 -0.9427 0.2173 3.0007 8.2808 -0.9271 18.8807 -16.4470 0.0225 -0.9693 -2.6644 0.0000 0.0000 0.0000 13.8575 6.7300 -1.4818 -0.1095 -2.1332 5.8739 1.5440 -22.4236 -16.0387 -0.0166 -0.8310 2.2841 3.5048 -0.8050 -3.7125 0.5807 -1.0635 -7.3374 -1.3419 -0.7069 -5.5900 8.7494 2.5231 -13.9035 -3.2566 2.2458 32.2033 -2.4598 1.6204 13.2954 -0.0000 -0.0000 0.0000 -84.6312 13.2560 21.1785 17.7262 -27.8052 -4.4208 -0.0000 -0.0000 15.3122 8.0595 15.6450 2.1868 -7.1250 0.0000 -0.0000 -18.1305 44.9689 0.0144 -0.0000 -0.0000 0.0000 88.0725 -12.1672 28.7761 -14.8321 23.9116 -3.1576 0.0000 0.0000 15.0656 -10.4683 -6.0397 1.1137 7.1250 -0.0000 -0.0000 13.5561 -35.8347 3.1255
0.0574 15.9066 5.1046 -1.0658 -1.6126 9.0244 0.0000 0.0000 0.0000 -13.0024 -15.2012 -0.9076 0.2133 2.9732 8.2042 -0.9290 18.8877 -16.4321 0.0223 -0.9631 -2.6473 0.0000 0.0000 0.0000 13.8128 6.8031 -1.5081 -0.1121 -2.1591 5.9457 1.5439 -22.4310 -16.0705 -0.0153 -0.7981 2.1936 3.4927 -0.7962 -3.7074 0.5623 -1.0526 -7.3286 -1.3544 -0.7013 -5.5830 8.7976 2.5798 -13.8638 -3.3891 2.3649 32.1663 -2.5018 1.6607 13.2819 0.0000 -0.0000 0.0000 -84.5100 13.3380 20.9643 17.6060 -27.6497 -4.3649 -0.0000 -0.0000 15.7647 7.9769 15.6010 2.1582 -7.1250 0.0000 -0.0000 -18.1885 44.9174 0.0384 0.0000 -0.0000 0.0000 87.9870 -12.0273 29.1954 -15.0584 24.2273 -3.2498 0.0000 0.0000 12.6851 -9.8810 -6.6712 1.1592 7.1250 -0.0000 -0.0000 14.1600 -36.4235 3.0624
0.0630 15.9069 5.1087 -1.0427 -1.6849 9.0337 0.0000 0.0000 0.0000 -13.0647 -15.1160 -0.8661 0.2093 2.9453 8.1266 -0.9307 18.8936 -16.4177 0.0220 -0.9568 -2.6298 0.0000 0.0000 0.0000 13.7671 6.8808 -1.5319 -0.1150 -2.1861 6.0202 1.5444 -22.4407 -16.0971 -0.0139 -0.7615 2.0929 3.4776 -0.7860 -3.6921 0.5414 -1.0395 -7.3197 -1.3678 -0.6945 -5.5815 8.8479 2.6356 -13.8289 -3.5197 2.4810 32.1353 -2.5439 1.7003 13.2722 -0.0000 -0.0000 0.0000 -84.3878 13.4361 20.8137 17.5017 -27.5144 -4.3166 -0.0000 -0.0000 16.1859 7.8820 15.5651 2.1275 -7.1250 0.0000 -0.0000 -18.2599 44.8721 0.0597 -0.0000 -0.0000 0.0000 87.8928 -11.8968 29.5856 -15.2841 24.5404 -3.3431 0.0000 0.0000 10.4673 -9.4212 -7.1885 1.1895 7.1250 -0.0000 -0.0000 14.6442 -36.9032 2.9958
0.0677 15.9070 5.1127 -1.0174 -1.7621 9.0375 0.0000 0.0000 0.0000 -13.1281 -15.0227 -0.8140 0.2048 2.9136 8.0384 -0.9327 18.9000 -16.4008 0.0215 -0.9466 -2.6020 0.0000 0.0000 0.0000 13.7221 6.9646 -1.5569 -0.1183 -2.2173 6.1065 1.5435 -22.4446 -16.1314 -0.0127 -0.7277 1.9999 3.4591 -0.7738 -3.6713 0.5169 -1.0238 -7.3065 -1.3830 -0.6863 -5.5783 8.9024 2.6916 -13.8068 -3.6468 2.5936 32.1090 -2.5860 1.7394 13.2674 0.0000 -0.0000 0.0000 -84.2604 13.5384 20.7382 17.4101 -27.3952 -4.2743 -0.0000 -0.0000 16.5388 7.7893 15.5490 2.1000 -7.1250 0.0000 -0.0000 -18.3365 44.8460 0.0722 0.0000 -0.0000 0.0000 87.7936 -11.7698 29.9278 -15.4961 24.8326 -3.4316 0.0000 0.0000 8.5918 -9.1015 -7.5717 1.2093 7.1250 -0.0000 -0.0000 14.9898 -37.2578 2.9363
0.0716 15.9069 5.1165 -0.9935 -1.8419 9.0378 0.0000 0.0000 0.0000 -13.1880 -14.9240 -0.7548 0.1999 2.8790 7.9421 -0.9346 18.9056 -16.3824 0.0209 -0.9325 -2.5631 0.0000 0.0000 0.0000 13.6819 7.0525 -1.5836 -0.1220 -2.2519 6.2023 1.5404 -22.4397 -16.1777 -0.0119 -0.7052 1.9381 3.4406 -0.7596 -3.6459 0.4900 -1.0052 -7.2921 -1.4007 -0.6767 -5.5765 8.9588 2.7468 -13.7801 -3.7697 2.7034 32.0796 -2.6271 1.7781 13.2603 0.0000 0.0000 0.0000 -84.1321 13.6595 20.7425 17.3390 -27.3025 -4.2417 -0.0000 -0.0000 16.8092 7.7130 15.5629 2.0811 -7.1250 0.0000 -0.0000 -18.4087 44.8503 0.0705 0.0000 0.0000 0.0000 87.6894 -11.6519 30.2211 -15.6858 25.0928 -3.5117 0.0000 0.0000 7.1804 -8.9465 -7.8127 1.2259 7.1250 -0.0000 -0.0000 15.1707 -37.4828 2.8875
0.0748 15.9066 5.1204 -0.9646 -1.9198 9.0353 0.0000 0.0000 0.0000 -13.2514 -14.8257 -0.6882 0.1948 2.8419 7.8390 -0.9369 18.9126 -16.3603 0.0203 -0.9196 -2.5277 0.0000 0.0000 0.0000 13.6387 7.1384 -1.6118 -0.1262 -2.2896 6.3068 1.5351 -22.4265 -16.2366 -0.0115 -0.6920 1.9017 3.4163 -0.7464 -3.6170 0.4605 -0.9880 -7.2789 -1.4177 -0.6677 -5.5779 9.0167 2.8030 -13.7528 -3.8878 2.8129 32.0533 -2.6667 1.8176 13.2547 0.0000 -0.0000 0.0000 -84.0059 13.8028 20.8279 17.2892 -27.2375 -4.2189 -0.0000 -0.0000 16.9748 7.6614 15.6094 2.0730 -7.1250 0.0000 -0.0000 -18.4708 44.8887 0.0526 0.0000 -0.0000 0.0000 87.5794 -11.5458 30.4703 -15.8423 25.3063 -3.5783 0.0000 0.0000 6.3098 -8.9735 -7.8955 1.2426 7.1250 -0.0000 -0.0000 15.1667 -37.5655 2.8550
